<svg xmlns="http://www.w3.org/2000/svg" width="256" height="256"><path fill="#1976D2" fill-opacity=".129" fill-rule="evenodd" d="M0 128.004v128.004l128.25-.254 128.25-.254.254-127.75L257.008 0H0zm.485.496c0 70.4.119 99.053.265 63.672s.146-92.98 0-128S.485 58.1.485 128.5"/><path fill="#1976D2" fill-opacity=".104" fill-rule="evenodd" d="M26.909 1.896C17.887 4.783 9.934 11.065 5.255 19-.112 28.1 0 25.781 0 128.161c0 93.026.038 94.914 2.06 101.068 3.99 12.142 12.759 20.845 24.94 24.75 6.429 2.062 7.555 2.081 103 1.803l96.5-.282 6.701-3.174c3.685-1.746 8.773-5.248 11.307-7.781 4.439-4.44 10.49-15.244 10.491-18.736.001-.93.451-1.969 1.001-2.309 1.241-.767 1.399-192.5.158-192.5-.463 0-1.406-1.913-2.096-4.25-3.494-11.835-13.482-21.503-25.994-25.162C223.269.185 211.58.006 127.568.054 39.079.104 32.113.231 26.909 1.896M68.823 9.75c18.878.152 49.478.152 68-.001 18.522-.152 3.077-.276-34.323-.276s-52.555.124-33.677.277m123.427-.004c5.363.179 14.137.179 19.5 0 5.363-.18.975-.327-9.75-.327s-15.113.147-9.75.327m-161.5.916c.688.278 1.813.278 2.5 0 .688-.277.125-.504-1.25-.504s-1.937.227-1.25.504m-6 1.91c-3.877 2.103-3.438 2.829.5.827 3.77-1.918 4.437-2.414 3.167-2.359-.504.022-2.155.711-3.667 1.532M227 11.714c.825.306 2.4.97 3.5 1.476 1.968.906 1.969.895.059-.635-1.068-.855-2.643-1.519-3.5-1.476-1.347.068-1.355.155-.059.635m8.788 4.807c1.809 1.476 4.617 5 6.241 7.831s2.955 4.698 2.958 4.148c.016-2.818-6.979-11.938-10.487-13.673-1.1-.544-.52.218 1.288 1.694M16.972 18.685c-3.379 3.848-6.95 10.741-6.898 13.315.017.825.909-.784 1.983-3.576s3.561-6.954 5.526-9.25S20.942 15 20.682 15c-.261 0-1.931 1.658-3.71 3.685m144.766 11.421c.591 2.262 2.814 2.503 3.624.394.316-.825.252-1.534-.143-1.577-.396-.042-1.452-.219-2.348-.393-1.166-.227-1.488.22-1.133 1.576m83.341 1.477c.048 1.165.285 1.402.604.605.289-.722.253-1.585-.079-1.917s-.568.258-.525 1.312M.48 128c0 53.075.122 74.788.27 48.25s.148-69.962 0-96.5S.48 74.925.48 128m9 0c0 51.425.121 72.462.27 46.75.148-25.713.148-67.788 0-93.5-.149-25.713-.27-4.675-.27 46.75m237 0c0 51.425.121 72.462.27 46.75.148-25.713.148-67.788 0-93.5-.149-25.713-.27-4.675-.27 46.75M140.5 38c.34.55.816 1 1.059 1s.441-.45.441-1-.477-1-1.059-1-.781.45-.441 1m31.5 2c0 .55.45 1 1 1s1-.45 1-1-.45-1-1-1-1 .45-1 1m1.5 6c-.34.55-.141 1 .441 1S175 46.55 175 46s-.198-1-.441-1-.719.45-1.059 1m-12.342 1.902c-1.042.644-.956.962.401 1.482 2.06.791 3.191-.034 1.866-1.359-.518-.518-1.538-.573-2.267-.123M161 55.969c0 .532.675.709 1.5.393.825-.317 1.5-.753 1.5-.969s-.675-.393-1.5-.393-1.5.436-1.5.969M144.5 57c-.399.646-.276 1.624.274 2.174q1 1 1.726-.174c.399-.646.276-1.624-.274-2.174q-1-1-1.726.174m31.5 6c0 .55.477 1 1.059 1s.781-.45.441-1-.816-1-1.059-1-.441.45-.441 1m-21 3.059c0 .582.45.781 1 .441s1-.816 1-1.059-.45-.441-1-.441-1 .477-1 1.059M160 68c0 .55.477 1 1.059 1s.781-.45.441-1-.816-1-1.059-1-.441.45-.441 1m-20 9c0 .55.45 1 1 1s1-.45 1-1-.45-1-1-1-1 .45-1 1m-19 3c0 1.289.506 1.998 1.25 1.75.688-.229 1.25-1.017 1.25-1.75s-.562-1.521-1.25-1.75c-.744-.248-1.25.461-1.25 1.75m9.694 6.639c-.799.799.104 2.361 1.365 2.361.518 0 .941-.675.941-1.5 0-1.546-1.18-1.987-2.306-.861M76.686 99.965c-6.382 2.032-7.155 4.859-3.031 11.09 1.769 2.673 2.687 5.451 2.75 8.324.086 3.923-.43 4.88-5.715 10.589-3.196 3.452-7.119 8.584-8.717 11.404-2.316 4.087-3.831 5.505-7.46 6.986-6.725 2.743-9.513 7.966-9.513 17.823 0 5.923.49 8.433 2.324 11.912 2.511 4.76 7.68 8.907 11.103 8.907 1.295 0 4.652 2.544 8.556 6.483 3.534 3.565 8.56 7.939 11.17 9.72 4.307 2.939 4.902 3.84 6.46 9.767C87.694 224.693 89.657 227 96.552 227c2.667 0 4.627.828 7.101 3 3.207 2.816 3.923 3 11.691 3 5.047 0 8.936-.487 9.971-1.25.934-.687 2.548-3.5 3.588-6.25l1.89-5 9.572-1.03 9.573-1.03.608 2.768c1.115 5.079 4.679 6.792 14.134 6.792 10.811 0 11.796-.921 16.698-15.634 3.275-9.827 4.248-11.613 9.008-16.528 6.813-7.033 10.491-13.349 13.157-22.593 1.741-6.036 2.681-7.703 5.213-9.243 1.7-1.033 4.939-4.382 7.199-7.44s4.5-5.562 4.979-5.562c1.093 0 3.066-5.536 3.066-8.602 0-3.296-2.017-7.269-4.011-7.901-2.732-.867-4.989.525-4.989 3.076v2.36l-3.533-2.085c-3.899-2.301-8.521-2.014-11.538.716-1.557 1.41-1.886 1.242-3.877-1.98-4.936-7.987-24.828-23.208-27.213-20.823-1.554 1.554-.504 2.673 5.893 6.283 11.766 6.641 22.895 20.198 25.036 30.5.914 4.401 1.943 5.012 4.732 2.807 1.368-1.081 1.609-1.727.763-2.045-5.267-1.977-7.118-7.599-3.733-11.339 3.288-3.633 9.19-1.833 12.349 3.768 1.384 2.453 3.216.478 4.114-4.434l.695-3.801 1.117 2.713c1.493 3.624-.028 7.836-3.848 10.661-1.627 1.202-2.957 2.795-2.957 3.54 0 1.652-7.026 8.142-9.752 9.007-1.537.488-2.096 1.814-2.527 5.996-.783 7.581-5.2 15.915-12.468 23.522-5.79 6.06-6.512 7.342-9.884 17.549-2 6.057-4.082 11.575-4.625 12.262-.648.819-3.834 1.25-9.244 1.25-9.159 0-9.936-.44-11.02-6.241-.385-2.058-1.13-3.475-1.657-3.149-.527.325-5.921.884-11.986 1.241l-11.027.649-2.416 5.948c-1.329 3.272-2.974 6.302-3.655 6.735-1.818 1.154-10.954.987-14.549-.267-1.71-.596-3.382-1.946-3.717-3-.47-1.482-1.555-1.919-4.79-1.931-7.208-.025-8.673-1.446-11.583-11.234-2.485-8.361-2.821-8.899-7.6-12.155-2.75-1.874-7.912-6.374-11.471-10.001-3.751-3.823-7.324-6.597-8.5-6.599-3.144-.006-8.262-3.579-10.034-7.006-2.222-4.296-2.925-11.695-1.584-16.667 1.282-4.754 5.991-9.323 9.607-9.323 1.882 0 3.038-1.276 5.665-6.25 1.815-3.437 6.117-9.158 9.559-12.712 5.615-5.798 6.253-6.877 6.214-10.5-.051-4.685-2.069-10.9-4.361-13.433-2.1-2.32-2.012-3.105.346-3.105 1.068 0 2.219-.45 2.559-1s2.729-.996 5.309-.99c5.713.012 14.248 3.769 18.22 8.021 2.753 2.947 2.962 3 7.402 1.882 4.443-1.119 4.569-1.258 4.569-5.032 0-3.714.14-3.881 3.25-3.871 1.787.005 5.678 1.14 8.645 2.521 5.646 2.628 7.252 2.531 5.479-.329-1.6-2.581-8.156-5.347-13.121-5.534-3.606-.137-4.797.286-6.407 2.275-1.088 1.343-1.776 3.217-1.528 4.163.818 3.13-3.44 3.131-7.333.002-7.852-6.31-19.219-9.397-26.299-7.143m52.66 1.285c-.255.412 1.363.75 3.595.75s4.059.477 4.059 1.059.45.781 1 .441 1-1.197 1-1.905c0-1.399-8.807-1.714-9.654-.345M147 104.059c0 .582.45.781 1 .441s1-.816 1-1.059-.45-.441-1-.441-1 .477-1 1.059m8 .941c0 .55.477 1 1.059 1s.781-.45.441-1-.816-1-1.059-1-.441.45-.441 1m-74.5 1.162c4.514 2.486 12.892 12.267 11.324 13.221-.178.108-2.049 1.079-4.157 2.157s-4.09 2.367-4.404 2.865c-.325.513.001.55.755.084.85-.525.738.022-.312 1.52-1.264 1.806-1.502 3.654-1.038 8.093.331 3.164.244 6.573-.194 7.575-.976 2.236-1.643 6.824-1.571 10.807.029 1.641-1.135 4.779-2.587 6.973-4.863 7.349-3.796 9.627 4.666 9.966 1.935.077 4.085.493 4.777.923s2.267.439 3.5.018 2.559-.788 2.948-.815c1.212-.084 3.728-3.963 3.761-5.799.018-.963-.612-1.75-1.4-1.75-2.008 0-5.48-5.191-6.129-9.166l-.545-3.334 1.416 3c2.338 4.951 5.375 7 10.377 7 3.793 0 4.923-.499 7.395-3.266 7.697-8.614-1.735-21.561-11.994-16.463-1.913.951-3.676 2.359-3.917 3.129-.338 1.081.099 1.024 1.918-.25 3.471-2.431 6.695-2.02 9.988 1.273 3.602 3.602 3.683 6.021.334 10-3.125 3.714-6.925 4.033-10.888.916-2.424-1.906-2.69-2.669-2.26-6.481.301-2.67.115-4.091-.488-3.719-1.612.996.835-2.976 3.092-5.018 1.128-1.022 4.083-2.086 6.565-2.366 4.156-.469 4.8-.223 8.127 3.104 3.505 3.505 3.601 3.8 3.222 9.877-.215 3.445-.709 6.939-1.097 7.765-.526 1.117.617 2.108 4.47 3.875 2.847 1.306 6.339 2.439 7.761 2.518s3.158.505 3.859.948c1.586 1.003 10.116.632 12.476-.542.989-.492 1.75-.493 1.75-.002 0 .939 2.044 1.312 6 1.094 2.856-.157 12.138-.156 16.309.002 1.597.06 2.542.537 2.191 1.106-.34.55.084 1 .941 1s1.559-.434 1.559-.964c0-.529 1.977-.923 4.394-.875s4.86-.2 5.431-.553c.57-.352 1.338-.153 1.707.444.369.596 1.3.843 2.069.548.77-.296 1.406.011 1.414.681.011.829.298.773.899-.177.504-.796 1.599-1.121 2.548-.757 2.338.897 7.172-1.841 7.854-4.448.786-3.004-2.045-13.518-4.802-17.837-1.251-1.959-3.948-5.219-5.994-7.245-3.483-3.449-5.208-4.723-14.763-10.898-2.059-1.33-3.746-2.981-3.75-3.669-.004-.687-.484-1.25-1.066-1.25s-.822.384-.532.853-.033 1.618-.718 2.555c-1.064 1.455-1.895 1.552-5.718.672-4.961-1.144-14.937-1.415-17.391-.473-.87.334-1.582 1.677-1.582 2.984 0 3.082-4.704 8.151-8.359 9.009-2.814.661-2.847.618-2.082-2.714.427-1.862.733-5.86.68-8.885-.072-4.074.157-5.046.882-3.75 1.632 2.916 2.879 1.972 2.879-2.18 0-4.686-2.118-7.17-5.87-6.884-2.68.204-2.693.24-1.235 3.455.81 1.787 1.727 3.091 2.039 2.898.795-.492.415 13.086-.404 14.411-.408.661-2.39-.681-5.055-3.424-3.023-3.109-5.796-4.888-8.93-5.726-4.685-1.253-5.457-2.378-3.295-4.803 1.033-1.159.99-1.215-.25-.324-.948.681-3.493.814-6.912.361-5.621-.746-6.896-1.727-10.291-7.925-1.266-2.311-2.422-3.119-4.5-3.145-1.539-.02-3.922-.679-5.297-1.465s-2.95-1.431-3.5-1.434-.1.49 1 1.096m89.313 4.521c.721.289 1.584.253 1.916-.079s-.258-.568-1.312-.525c-1.165.048-1.402.285-.604.604M170 113c0 .55.477 1 1.059 1s.781-.45.441-1-.816-1-1.059-1-.441.45-.441 1m-7.986 1.414c.648.648 1.324.648 1.972 0 .647-.647.309-.985-.986-.985s-1.633.338-.986.985m-90.84 22.9c-2.666 2.839-2.837 7.776-.345 10.031C72.846 149.17 76 149.57 76 148c0-.55-.685-1-1.521-1-.837 0-2.026-1.107-2.642-2.459-.898-1.969-.789-2.965.544-5 1.825-2.786 3.602-3.143 6.935-1.395 2.168 1.137 2.17 1.129.279-1-2.477-2.79-5.702-2.726-8.421.168M77 140c0 .55.477 1 1.059 1s.781-.45.441-1-.816-1-1.059-1-.441.45-.441 1m24.446 5.087c-1.03 1.668 1.287 3.58 2.667 2.2 1.154-1.154.432-3.287-1.113-3.287-.485 0-1.184.489-1.554 1.087m103.725 1.561c.193 1.006 1.175 1.988 2.181 2.181 1.321.255 1.732-.156 1.477-1.477-.193-1.006-1.175-1.988-2.181-2.181-1.321-.255-1.732.156-1.477 1.477m-136.638 12.18c.375.731 1.045 2.531 1.488 4 .648 2.144.824 2.265.893.613.047-1.132-.622-2.932-1.488-4-.866-1.067-1.268-1.343-.893-.613m2.662 9.672c.02 1.65.244 2.204.498 1.231s.237-2.323-.037-3-.481.119-.461 1.769M10 223.865c0 1.614 2.758 8.135 3.441 8.135.298 0-.202-1.912-1.112-4.25-1.884-4.841-2.329-5.583-2.329-3.885m233.854 3.668c-.874 2.432-1.232 4.201-.795 3.93.939-.58 3.311-7.426 2.763-7.975-.208-.207-1.093 1.613-1.968 4.045m-228.982 7.228c.519.969 1.968 2.656 3.22 3.75 1.865 1.629 1.77 1.31-.526-1.761-2.967-3.968-4.267-4.928-2.694-1.989m224.679.802c-.924 1.409-3.764 3.884-6.311 5.5-2.547 1.615-4.128 2.937-3.514 2.937 1.609 0 9.304-6.097 11.043-8.75.811-1.238 1.247-2.25.968-2.25s-1.263 1.153-2.186 2.563m-216.69 6.378c1.298 1.132 2.836 2.059 3.416 2.059 1.23 0 1.171-.05-2.777-2.362l-3-1.757zm8.889 3.721c.688.278 1.813.278 2.5 0 .688-.277.125-.504-1.25-.504s-1.937.227-1.25.504m191.063.021c.721.289 1.584.253 1.916-.079s-.258-.568-1.312-.525c-1.165.048-1.402.285-.604.604M81.75 246.75c25.437.148 67.062.148 92.5 0 25.437-.149 4.625-.27-46.25-.27s-71.688.121-46.25.27"/><path fill="#1976D2" fill-opacity=".151" fill-rule="evenodd" d="M29.746 1.074C18.703 3.712 9.501 11.183 4.278 21.752L.5 29.397V226.5l3.082 6.503c3.948 8.33 11.085 15.467 19.415 19.415L29.5 255.5h196l5.996-2.414c10.666-4.294 21.14-16.299 23.036-26.402.382-2.038 1.094-3.953 1.581-4.254.506-.312.887-41.6.887-96.048 0-63.412-.336-95.292-1-94.882-.55.34-1-.196-1.001-1.191-.001-3.595-5.985-14.348-10.491-18.854-2.534-2.533-7.622-6.035-11.307-7.781L226.5.5 130 .338C75.873.248 31.852.57 29.746 1.074m-1.152 9.571c-3.548 1.09-6.502 3.103-10.677 7.278-9.584 9.584-8.998 2.016-8.687 112.151L9.5 225.5l2.661 5c3.171 5.959 7.704 10.428 13.839 13.642l4.5 2.358h195l5-2.661c5.959-3.171 10.428-7.704 13.642-13.839l2.358-4.5v-195l-2.661-5c-3.192-5.999-7.752-10.501-13.839-13.663-4.242-2.203-5.74-2.355-26.15-2.656-17.46-.257-21.629-.064-21.54 1 .234 2.799-2.627 13.838-3.85 14.853-.954.791-1.83.485-3.381-1.179l-2.093-2.247-3.832 3.742c-3.296 3.219-4.005 3.534-5.066 2.255-.679-.817-1.876-1.24-2.661-.939-2.581.991-1.494-1.195 2.564-5.158l3.992-3.897-2.178-2.319c-2.911-3.098-1.533-4.339 5.869-5.285 3.204-.41-26.574-.772-66.174-.806-61.412-.053-72.721.16-76.906 1.444M151.5 28.208c-2.951 1.693-4.432 3.968-4.468 6.864-.024 1.895-1.772 4.11-6.635 8.406l-6.603 5.833-8.928-4.377c-8.024-3.933-9.149-4.238-11.105-3.017C108.971 44.909 85 66.281 85 67.56c0 .753.863 1.832 1.918 2.396 1.635.875 3.946-.691 15.674-10.624l13.755-11.651 9.344 4.734 9.344 4.734 7.367-6.594c6.708-6.003 7.601-6.504 9.982-5.599 3.021 1.148 8.093.379 9.619-1.46.76-.915.614-1.429-.529-1.868-.868-.333-1.332-.207-1.032.279s-.163 1.156-1.03 1.488c-2.963 1.137-6.141.606-8.777-1.468-4.992-3.926-2.768-10.959 4.366-13.804 2.105-.839 2.183-1.001.499-1.029-1.1-.018-2.9.483-4 1.114M158 32c0 .55.477 1 1.059 1s.781-.45.441-1-.816-1-1.059-1-.441.45-.441 1M.48 127.5c0 52.8.122 74.253.27 47.674s.148-69.779 0-96C.601 52.953.48 74.7.48 127.5m154.08-89.882c-.362 1.44-.523 2.677-.359 2.75s1.267.67 2.45 1.329c1.931 1.074 2.279.886 3.409-1.843 1.045-2.522 1.02-3.19-.15-3.931-2.592-1.641-4.679-.979-5.35 1.695m10.19 1.132c-1.34 2.833-1.23 9.25.158 9.25.43 0 1.597-.9 2.592-2 2.921-3.228 7.561-2.631 10.25 1.319 2.901 4.261 2.835 6.225-.348 10.399-3.499 4.587-6.669 5.712-10.504 3.729l-2.99-1.546.077 7.3c.042 4.014-.009 11.015-.113 15.556-.105 4.542.106 8.554.468 8.917s.66 2.744.66 5.293c0 7.411-4.013 9.64-6.526 3.625-.783-1.875-1.951-3.584-2.595-3.799s-1.218-1.715-1.275-3.333c-.086-2.426-.631-3.055-3.104-3.583-1.65-.352-2.437-.694-1.75-.759 1.783-.168 1.553-2.118-.25-2.118-.825 0-1.5.884-1.5 1.965 0 2.191 2.699 3.993 5 3.337 1.164-.332 1.125-.121-.176.941-1.556 1.271-1.538 1.454.25 2.571 2.151 1.344 2.611 4.188.676 4.182-2.438-.007-7.808-4.031-9-6.744-.665-1.513-1.569-3.012-2.009-3.329-1.209-.873 3.159-5.929 5.082-5.882.922.022 3.252 1.391 5.177 3.041l3.5 3.001.311-3.547c.241-2.754.968-3.887 3.25-5.067 1.616-.836 2.939-1.921 2.939-2.412s-1.759.073-3.91 1.251c-4.641 2.542-8.215 1.765-11.368-2.471-2.296-3.083-1.789-6.943 1.254-9.549 1.057-.904 1.69-2.02 1.406-2.478-.283-.458.865-1.109 2.552-1.447 5.552-1.11 3.198-2.472-3.916-2.265-6.847.2-8.249.825-10.418 4.641-.495.87-.168 1.037 1.098.562 1.609-.603 1.649-.487.372 1.081-.787.967-2.137 1.571-3 1.344-1.351-.356-1.523.716-1.236 7.673.19 4.61.822 8.389 1.471 8.789.625.387.751 1.065.279 1.508-.472.442-1.037.305-1.257-.304-.22-.61-1.036-1.96-1.813-3-1.35-1.806-1.389-1.791-.856.325.307 1.22 1.185 2.737 1.95 3.373.766.635 1.392 2.225 1.392 3.532 0 1.308.388 2.378.861 2.378.474 0 .661 1.049.416 2.332-.38 1.987.195 2.566 3.889 3.917 2.384.872 6.358 1.51 8.831 1.418 3.205-.119 5.03.364 6.348 1.681 1.152 1.15 2.758 1.674 4.253 1.389 1.457-.279 2.402.013 2.402.741 0 1.973 4.964 3.797 6.612 2.429 1.077-.894 1.388-.822 1.388.322 0 .81 2.588 3.079 5.75 5.043l5.75 3.569.262-39.168c.144-21.543.045-39.732-.219-40.421-.332-.867-3.097-1.252-8.986-1.252-8.297 0-8.538.068-9.807 2.75m6.167-.5c-.046.138-.192 1.212-.325 2.387-.217 1.921.038 2.039 2.523 1.173 3.093-1.078 2.934-3.81-.222-3.81-1.041 0-1.93.112-1.976.25M139 48.941c0 .518.45 1.219 1 1.559s1-.084 1-.941S140.55 48 140 48s-1 .423-1 .941m30.508 1.046c-.374.605.069 2.245.986 3.644 1.987 3.032 1.454 3.946-1.408 2.415-2.112-1.131-2.662-.474-1.321 1.578.888 1.359 5.235-.017 5.235-1.658 0-.603-.486-2.006-1.081-3.117-1.387-2.592-.455-3.536 1.719-1.742 1.456 1.202 1.62 1.187 1.196-.107-.596-1.822-4.381-2.542-5.326-1.013m5.001 12.63c-1.668 1.22-1.692 1.383-.2 1.383.93 0 1.698.563 1.706 1.25.011.865.242.911.75.15.404-.605 1.302-1.282 1.995-1.503.867-.278.696-.756-.55-1.534-1.384-.864-2.253-.805-3.701.254m-62.842 6.05c-.367.366-.667 8.032-.667 17.035v16.368l2.144-1.147c1.19-.637 3.954-.905 6.21-.602 2.236.3 5.348.289 6.916-.025 3.632-.726 8.74-5.79 8.698-8.623-.031-2.155-.044-2.156-1.54-.173-3.998 5.3-5.548 6.5-8.398 6.5-5.37 0-7.524-6.801-4.517-14.261.57-1.414.343-1.624-1.152-1.063-1.572.59-1.668.461-.62-.831.683-.841.946-1.825.584-2.187s-.078-.658.631-.658c.937 0 .997-.351.222-1.286-.807-.972-.594-1.285.877-1.285 1.07 0 1.945.38 1.945.844 0 .465.45.567 1 .227s1-.254 1.001.191 1.029.868 2.285.94c2.07.118 2.269-.274 2.114-4.16-.094-2.36-.474-4.781-.844-5.381-.728-1.177-15.758-1.554-16.889-.423m40.583.892c-1.929 2.093-1.503 3.391 1.5 4.569l2.75 1.078-2.476.948c-1.959.751-2.178 1.133-1.048 1.831.786.486 1.756.68 2.157.433s1.036.047 1.412.654c.425.689 1.144.224 1.908-1.234 1.462-2.788.23-6.037-1.968-5.194-.817.314-2.211.292-3.098-.049-1.318-.506-1.383-.895-.357-2.131 1.592-1.918.896-2.725-.78-.905m13.303-.644a1.116 1.116 0 0 0 .362 1.532c.521.322 1.21.159 1.532-.362a1.116 1.116 0 0 0-.362-1.532 1.116 1.116 0 0 0-1.532.362m-25.2 6.892c-.594.381-.804 1.447-.467 2.369.517 1.412.891 1.472 2.375.381 1.415-1.04 1.507-1.505.467-2.368-.712-.591-1.781-.763-2.375-.382m-54.686 2.86c-.367.366-.667 3.291-.667 6.5V91l3.25.024c1.787.013 5.95 1.136 9.25 2.495s6.112 2.474 6.25 2.476c.138.003.25-4.045.25-8.995v-9h-8.833c-4.859 0-9.134.3-9.5.667M143 84.059c0 .582.45.781 1 .441s1-.816 1-1.059-.45-.441-1-.441-1 .477-1 1.059m-18.118 1.191c-.066.688-.008 1.7.127 2.25s.263 1.543.285 2.206.414.974.873.691c.458-.283.833.014.833.661 0 .683-.838.956-2 .652-1.1-.287-2-.141-2 .325 0 1.376 1.695 2.019 3.499 1.327 1.685-.646 1.672-2.672-.044-6.786-.644-1.543-.472-1.796.871-1.281.921.353 1.674.206 1.674-.326 0-1.445-3.981-1.173-4.118.281m35.475 8.263c-.32.832.003 2.216.717 3.076 1.06 1.277 1.061 1.71.005 2.362-.842.521-.931 1.022-.255 1.44 1.461.903 1.98-.314 1.978-4.641-.002-3.782-1.372-5.035-2.445-2.237m-45.691 11.154c-.366.366-.666 2.315-.666 4.33s-1.063 5.765-2.363 8.332l-2.363 4.668 4.096 1.103c2.555.688 5.745 2.752 8.481 5.487 2.411 2.412 4.838 4.105 5.393 3.762 1.978-1.222.169-12.82-2.87-18.393-2.852-5.231-8.429-10.568-9.708-9.289m-37.97 4.45c2.049 3.096 2.824 5.682 3.126 10.435l.403 6.319 5.387-3.577c2.964-1.967 5.388-3.896 5.388-4.286 0-2.049-6.495-9.22-9.947-10.981-6.401-3.265-7.54-2.719-4.357 2.09m73.971-2.45c-.367.366-.667 1.131-.667 1.7 0 .626.466.567 1.183-.15.651-.651.951-1.416.667-1.7s-.817-.217-1.183.15m-18.416 2.161c.202.92.904 1.56 1.558 1.422.655-.138 1.191.575 1.191 1.583 0 2.662 1.029 3.281 2.69 1.619.799-.798 2.996-1.452 4.881-1.452s3.429-.477 3.429-1.059-.45-.781-1-.441-1 .141-1-.441-1.125-1.059-2.5-1.059-2.5.536-2.5 1.191c0 .723-.491.577-1.25-.372-.687-.86-2.289-1.811-3.558-2.113-1.789-.426-2.226-.173-1.941 1.122m16.428 3.565c-.312.814.308 2.592 1.377 3.951 2.553 3.245 2.457 4.674-.306 4.577-1.238-.043-1.685-.307-.994-.585.691-.279 1.002-.918.691-1.421-.79-1.279-6.447-1.149-6.447.148 0 .584-.971.922-2.157.75s-2.304.137-2.484.687c-.846 2.59 1.638 3.276 13.141 3.63l12 .37-.039-2.739c-.023-1.646.325-2.375.872-1.828 1.043 1.043 3.667.298 3.667-1.04 0-.491-1.364-.893-3.032-.893s-4.698-.696-6.734-1.547c-2.393-1-3.826-1.176-4.052-.5-.192.576-.809 1.047-1.372 1.047s-.781-.633-.484-1.406c.296-.773-.275-2.143-1.27-3.043-1.564-1.416-1.886-1.437-2.377-.158M137 117.031c0 .533.675.969 1.5.969s1.5-.177 1.5-.393-.675-.652-1.5-.969-1.5-.139-1.5.393m-64.051 22.02c-3.232 3.232-1.114 7.898 3.601 7.934 4.368.032 6.029-5.246 2.621-8.33-2.401-2.173-3.738-2.088-6.222.396M77 140c0 .55.45 1 1 1s1-.45 1-1-.45-1-1-1-1 .45-1 1m19.5 2.131c-5.112 2.858-6.03 8.43-2.045 12.414 4.867 4.868 12.545 1.525 12.545-5.463 0-5.721-5.815-9.571-10.5-6.951m5.188 2.515c-1.416 1.415-.615 3.354 1.385 3.354 1.398 0 1.968-.543 1.75-1.667-.357-1.841-2.064-2.759-3.135-1.687m-37.178 7.37c.346.559 1.047.758 1.559.441 1.387-.857 1.129-1.457-.628-1.457-.857 0-1.276.457-.931 1.016m139.99 9.052c-1.65 1.057-2.487 1.924-1.861 1.927s2.202-.88 3.5-1.962c2.973-2.477 2.258-2.461-1.639.035m-152.465.866c-2.229 4.165-.078 12.447 2.775 10.684 1.728-1.069 2.571-7.487 1.337-10.195-1.333-2.924-2.72-3.09-4.112-.489m10 1c-1.292 2.415-1.319 8.072-.048 10.066 2.762 4.334 6.607-5.153 4.036-9.958-1.371-2.56-2.657-2.595-3.988-.108m-12.901 5.348C48.871 175.702 54.167 183 59.812 183c1.619 0 3.481 1.124 5.127 3.096 4.858 5.819 16.967 4.787 23.469-2 1.794-1.873 3.415-2.694 4.67-2.365 3.043.795 2.343-2.295-1.071-4.726-3.182-2.266-5.992-1.897-3.984.523 1.959 2.36-5.729 6.549-13.206 7.196-3.475.301-5.983.19-5.576-.247 1.276-1.364-1.324-3.653-2.778-2.446-1.805 1.498-6.729.105-6.034-1.706.301-.786.136-1.174-.368-.862-.505.311-1.205-.34-1.556-1.448-.446-1.404-1.511-2.015-3.513-2.015-3.446 0-4.239-1.092-5.082-7l-.643-4.5zm148.465 5.814c-3.295 9.365-5.677 13.161-12.55 19.993-5.764 5.73-7.07 7.728-9.495 14.527-3.831 10.741-4.969 12.384-8.577 12.384-2.31 0-2.977-.448-2.977-2 0-1.1-.45-2-1-2s-.911-.338-.802-.75-.137-1.735-.548-2.938c-.99-2.906-6.552-4.652-12.505-3.927-2.607.317-7.869.843-11.693 1.169-7.955.677-10.636 2.213-13.772 7.894-3.436 6.224-5.184 7.552-9.939 7.552-4.848 0-6.701-1.951-7.227-7.61-.68-7.322-4.232-10.543-17.014-15.428-3.3-1.262-8.025-3.601-10.5-5.199l-4.5-2.905 4 3.563c2.2 1.959 4.727 3.802 5.615 4.095 1.035.342 2.555 3.822 4.228 9.686 1.438 5.034 3.186 9.516 3.885 9.96.7.444 3.646.814 6.547.823 4.683.013 5.38.292 6.214 2.487 1.151 3.026 3.669 3.725 12.004 3.331l6.432-.303 2.388-6.105 2.389-6.105 9.649-.712c17.276-1.274 15.505-1.577 16.228 2.776.352 2.12 1.266 4.251 2.031 4.735 1.568.993 13.894 1.23 16.283.314.945-.363 2.974-5.177 5.164-12.25 3.395-10.969 3.948-12.005 9.414-17.653 6.426-6.64 10.093-12.083 11.95-17.742 1.985-6.046.761-7.584-1.322-1.662M70.5 192c.34.55.816 1 1.059 1s.441-.45.441-1-.477-1-1.059-1-.781.45-.441 1"/><path fill="#1976D2" fill-opacity=".988" fill-rule="evenodd" d="M30.369 1.493c-3.373.733-7.606 2.095-9.408 3.027C16.285 6.938 8.483 14.5 5.615 19.393-.072 29.098 0 27.719 0 127.345c0 64.026.338 93.15 1.125 96.856 2.528 11.902 10.895 22.768 21.3 27.659 8.557 4.022 14.26 4.225 110.075 3.924 101.347-.319 94.159.122 105.397-6.464l4.462-2.615-2.43-2.102-2.429-2.103 2.585-2.519 2.585-2.519 1.727 2.29c.95 1.259 2.159 2.022 2.688 1.696 1.883-1.165 6.968-12.552 7.572-16.961.338-2.468 1.004-4.487 1.479-4.487.48 0 .833-41.694.794-93.75-.039-51.562-.415-92.869-.836-91.793-.582 1.488-.923.806-1.423-2.841-.362-2.638-1.529-6.767-2.594-9.174-2.366-5.35-10.085-13.776-15.556-16.983C227.254.029 227.162.024 128 .094 55.67.145 35.215.438 30.369 1.493M103.5 9c-83.062.561-77.597.04-85.728 8.181-5.073 5.079-7.448 9.696-8.828 17.163-.639 3.459-.902 38.821-.724 97.317l.28 91.883 3.285 6.672c3.519 7.146 7.943 11.398 15.363 14.765 4.237 1.923 6.898 1.975 100.852 1.975s96.615-.052 100.852-1.975c7.421-3.367 11.844-7.619 15.363-14.766l3.285-6.673V32.5l-2.59-5.5c-3.715-7.888-7.185-11.527-14.222-14.914L224.5 9.108 201 8.804c-12.925-.167-56.8-.079-97.5.196M.48 127.5c0 51.7.121 72.703.27 46.674.148-26.029.148-68.329 0-94C.601 54.503.48 75.8.48 127.5m72.566 11.945c-2.845 3.427 1.078 9.221 4.704 6.948 2.114-1.325 2.937-5.255 1.056-5.041-.718.081-1.306-.302-1.306-.852s.558-.938 1.239-.863c.682.075.993-.262.691-.75-.865-1.4-5.063-1.034-6.384.558m21.687 4.305c-2.79 3.096-3.052 6.575-.717 9.543C98.225 158.645 107 155.743 107 149c0-1.667-.889-3.889-2-5-2.511-2.511-8.107-2.647-10.267-.25m6.447 2.5c.176 1.238.995 2.25 1.82 2.25s1.644-1.012 1.82-2.25c.245-1.732-.174-2.25-1.82-2.25s-2.065.518-1.82 2.25"/></svg>